# xmcd
#
# Track frame offsets:
#	150
#	13071
#	26766
#	39403
#	52681
#	62985
#	78189
#	93206
#	104201
#	126196
#
# Disc length: 1881 seconds
#
# Revision: 0
# Processed by: cddbd v1.4b42PL1 Copyright (c) Steve Scherf et al.
# Submitted via: OrangeCD 4.1
#
DISCID=7b07570a
DTITLE=Deborah Conway - PC - The Songs of Patsy Cline
DYEAR=1900
DGENRE=
TTITLE0=I Fall To Pieces
TTITLE1=Back in Baby's Arms
TTITLE2=Crazy
TTITLE3=Sweet Dreams (Of You)
TTITLE4=Lovesick Blues
TTITLE5=Eyes of a Child
TTITLE6=So Wrong
TTITLE7=Your Cheating Heart
TTITLE8=Walking After Midnight
TTITLE9=She's Got You
EXTD=
EXTT0=
EXTT1=
EXTT2=
EXTT3=
EXTT4=
EXTT5=
EXTT6=
EXTT7=
EXTT8=
EXTT9=
PLAYORDER=
